# xmcd CD database file
#
# Track frame offsets:
#	150
#	12299
#	24902
#	33568
#	45893
#	60557
#	76820
#	87863
#	104522
#	111781
#	118889
#	129167
#	143680
#	156174
#	163931
#	174851
#	189671
#	218898
#	227375
#	244474
#	258662
#	285073
#	299158
#	319281
#	329726
#
# Disc length: 4469 seconds
#
# Revision: 0
# Processed by: cddbd v1.5PL3 Copyright (c) Steve Scherf et al.
# Submitted via: CDex 1.51
#
DISCID=5f117319
DTITLE=Johnny Cash - At Folsom Prison
DYEAR=1900
DGENRE=Country
TTITLE0=Folsom Prison Blues
TTITLE1=Dark As The Dungeon
TTITLE2=I Still Miss Someone
TTITLE3=Cocaine Blues
TTITLE4=25 Minutes To Go
TTITLE5=Orange Blossom Special
TTITLE6=The Long Black Veil
TTITLE7=Send A Picture Of Mother
TTITLE8=The Wall
TTITLE9=Dirty Old Egg-Sucking Dog
TTITLE10=Flushed From The Bathroom Of Your Heart	
TTITLE11=Jackson
TTITLE12=Give My Love To Rose (With June Carter)
TTITLE13=I Got Stripes
TTITLE14=Green, Green Grass of Home
TTITLE15=Greystone Chapel
TTITLE16=Wanted Man
TTITLE17=Wreck Of The Old '97
TTITLE18=I Walk The Line
TTITLE19=Darlin' Companion
TTITLE20=Starkville City Jail
TTITLE21=San Quentin
TTITLE22=A Boy Named Sue
TTITLE23=	(There'll Be) Peace In The Valley
TTITLE24=Folsom Prison Blues
EXTD=
EXTT0=
EXTT1=
EXTT2=
EXTT3=
EXTT4=
EXTT5=
EXTT6=
EXTT7=
EXTT8=
EXTT9=
EXTT10=
EXTT11=
EXTT12=
EXTT13=
EXTT14=
EXTT15=
EXTT16=
EXTT17=
EXTT18=
EXTT19=
EXTT20=
EXTT21=
EXTT22=
EXTT23=
EXTT24=
PLAYORDER=
